<svg xmlns="http://www.w3.org/2000/svg" width="1513.583" height="599.302" viewBox="0 0 1513.583 599.302">
  <g id="Group_2258" data-name="Group 2258" transform="translate(-43 -110.704)">
    <path id="Path_9679" data-name="Path 9679" d="M303.26,264.746h-82.4a5.356,5.356,0,0,1-5.362-5.362V176.962a5.356,5.356,0,0,1,5.362-5.362h82.422a5.356,5.356,0,0,1,5.362,5.362v82.422A5.392,5.392,0,0,1,303.26,264.746Z" transform="translate(69.438 117.867)" fill="blue" opacity="0.025"/>
    <path id="Path_9694" data-name="Path 9694" d="M305.726,267.363H221.013a5.507,5.507,0,0,1-5.513-5.513V177.113a5.507,5.507,0,0,1,5.513-5.513h84.738a5.507,5.507,0,0,1,5.513,5.513v84.738A5.543,5.543,0,0,1,305.726,267.363Z" transform="translate(1117.249 392.678)" fill="blue" opacity="0.025"/>
    <path id="Path_9692" data-name="Path 9692" d="M322.455,285.119H222.035a6.528,6.528,0,0,1-6.535-6.535V178.135a6.528,6.528,0,0,1,6.535-6.535H322.484a6.528,6.528,0,0,1,6.535,6.535V278.584A6.571,6.571,0,0,1,322.455,285.119Z" transform="translate(1187.2 -60.896)" fill="blue" opacity="0.025"/>
    <path id="Path_9680" data-name="Path 9680" d="M585.707,521.509H536.776a3.174,3.174,0,0,1-3.176-3.176V469.376a3.174,3.174,0,0,1,3.176-3.176h48.931a3.174,3.174,0,0,1,3.176,3.176v48.931A3.2,3.2,0,0,1,585.707,521.509Z" transform="translate(-178.731 -114.124)" fill="blue" opacity="0.025"/>
    <path id="Path_9693" data-name="Path 9693" d="M582.823,518.448H536.6a3,3,0,0,1-3-3V469.2a3,3,0,0,1,3-3h46.223a3,3,0,0,1,3,3v46.223A3.019,3.019,0,0,1,582.823,518.448Z" transform="translate(876.74 169.937)" fill="blue" opacity="0.025"/>
    <path id="Path_9691" data-name="Path 9691" d="M591.95,528.135H537.156a3.554,3.554,0,0,1-3.556-3.556V469.757a3.554,3.554,0,0,1,3.556-3.556H591.95a3.554,3.554,0,0,1,3.556,3.556v54.793A3.579,3.579,0,0,1,591.95,528.135Z" transform="translate(961.077 -270.314)" fill="blue" opacity="0.025"/>
    <path id="Path_9681" data-name="Path 9681" d="M1807.326,351.073h-57.18a6.24,6.24,0,0,1-6.247-6.247V287.647a6.24,6.24,0,0,1,6.247-6.247h57.18a6.24,6.24,0,0,1,6.247,6.247v57.179A6.223,6.223,0,0,1,1807.326,351.073Z" transform="translate(-881.302 120.676)" fill="blue" opacity="0.025"/>
    <path id="Path_9690" data-name="Path 9690" d="M1818.248,363.071h-67.026a7.314,7.314,0,0,1-7.323-7.323V288.723a7.314,7.314,0,0,1,7.323-7.323h67.026a7.314,7.314,0,0,1,7.323,7.323v67.025A7.294,7.294,0,0,1,1818.248,363.071Z" transform="translate(-1700.9 281.092)" fill="blue" opacity="0.025"/>
    <path id="Path_9682" data-name="Path 9682" d="M2029.5,496.645H1886.667a8.259,8.259,0,0,1-8.267-8.267V451.667a8.259,8.259,0,0,1,8.267-8.267H2029.5a8.259,8.259,0,0,1,8.267,8.267v36.711A8.294,8.294,0,0,1,2029.5,496.645Z" transform="translate(-980.048 1.74)" fill="blue" opacity="0.025"/>
    <path id="Path_9689" data-name="Path 9689" d="M2055.514,505.814H1888.091a9.681,9.681,0,0,1-9.691-9.691V453.091a9.681,9.681,0,0,1,9.691-9.691h167.423a9.681,9.681,0,0,1,9.691,9.691v43.032A9.722,9.722,0,0,1,2055.514,505.814Z" transform="translate(-1793.49 169.572)" fill="blue" opacity="0.025"/>
    <g id="Group_1567" data-name="Group 1567" transform="translate(369.256 658.716)" opacity="0.025">
      <path id="Path_9684" data-name="Path 9684" d="M233.145,1369.99a25.645,25.645,0,1,1,25.645-25.645A25.666,25.666,0,0,1,233.145,1369.99Zm0-38.826a13.181,13.181,0,1,0,13.181,13.181A13.205,13.205,0,0,0,233.145,1331.164Z" transform="translate(-207.5 -1318.7)" fill="blue"/>
    </g>
    <g id="Group_1572" data-name="Group 1572" transform="translate(73.256 176.716)" opacity="0.025">
      <path id="Path_9684-2" data-name="Path 9684" d="M233.145,1369.99a25.645,25.645,0,1,1,25.645-25.645A25.666,25.666,0,0,1,233.145,1369.99Zm0-38.826a13.181,13.181,0,1,0,13.181,13.181A13.205,13.205,0,0,0,233.145,1331.164Z" transform="translate(-207.5 -1318.7)" fill="blue"/>
    </g>
    <g id="Group_1571" data-name="Group 1571" transform="translate(1145.256 642.716)" opacity="0.025">
      <path id="Path_9684-3" data-name="Path 9684" d="M233.145,1369.99a25.645,25.645,0,1,1,25.645-25.645A25.666,25.666,0,0,1,233.145,1369.99Zm0-38.826a13.181,13.181,0,1,0,13.181,13.181A13.205,13.205,0,0,0,233.145,1331.164Z" transform="translate(-207.5 -1318.7)" fill="blue"/>
    </g>
    <g id="Ellipse_62" data-name="Ellipse 62" transform="translate(506.038 456)" fill="none" stroke="blue" stroke-miterlimit="10" stroke-width="10" opacity="0.025">
      <circle cx="17" cy="17" r="17" stroke="none"/>
      <circle cx="17" cy="17" r="12" fill="none"/>
    </g>
    <g id="Ellipse_67" data-name="Ellipse 67" transform="translate(378.038 126)" fill="none" stroke="blue" stroke-miterlimit="10" stroke-width="10" opacity="0.025">
      <circle cx="17" cy="17" r="17" stroke="none"/>
      <circle cx="17" cy="17" r="12" fill="none"/>
    </g>
    <g id="Ellipse_65" data-name="Ellipse 65" transform="translate(1221.038 241)" fill="none" stroke="blue" stroke-miterlimit="10" stroke-width="10" opacity="0.025">
      <circle cx="17" cy="17" r="17" stroke="none"/>
      <circle cx="17" cy="17" r="12" fill="none"/>
    </g>
    <g id="Ellipse_63" data-name="Ellipse 63" transform="translate(125.038 402)" fill="none" stroke="blue" stroke-miterlimit="10" stroke-width="10" opacity="0.025">
      <circle cx="17" cy="17" r="17" stroke="none"/>
      <circle cx="17" cy="17" r="12" fill="none"/>
    </g>
    <g id="Ellipse_64" data-name="Ellipse 64" transform="translate(1463.038 422)" fill="none" stroke="blue" stroke-miterlimit="10" stroke-width="10" opacity="0.025">
      <circle cx="17" cy="17" r="17" stroke="none"/>
      <circle cx="17" cy="17" r="12" fill="none"/>
    </g>
  </g>
</svg>
