<svg xmlns="http://www.w3.org/2000/svg" xmlns:xlink="http://www.w3.org/1999/xlink" width="141.508" height="41.231" viewBox="0 0 141.508 41.231">
  <defs>
    <clipPath id="clip-path">
      <path id="Path_9695" data-name="Path 9695" d="M580.047,417.994a1.521,1.521,0,1,1,0,3.042,20.645,20.645,0,0,1-1.619-41.227,1.521,1.521,0,0,1,.226,3.033,17.6,17.6,0,0,0,1.392,35.152m16.328-11.006a1.517,1.517,0,1,1,2.816,1.131,20.56,20.56,0,0,1-2.257,4.146,20.833,20.833,0,0,1-3.148,3.53,1.517,1.517,0,1,1-2.022-2.262,17.586,17.586,0,0,0,2.683-3.015A17.353,17.353,0,0,0,596.374,406.988Zm-7.113-21.6a1.517,1.517,0,0,1,1.6-2.581,20.643,20.643,0,0,1,9.836,17.583,1.521,1.521,0,1,1-3.042,0,17.539,17.539,0,0,0-2.222-8.581A17.8,17.8,0,0,0,589.262,385.388Z" transform="translate(-559.4 -379.805)"/>
    </clipPath>
    <linearGradient id="linear-gradient" x1="0.5" y1="1.057" x2="0.5" y2="-0.109" gradientUnits="objectBoundingBox">
      <stop offset="0" stop-color="#651fff"/>
      <stop offset="1" stop-color="#df40fa"/>
    </linearGradient>
    <clipPath id="clip-path-2">
      <path id="Path_9696" data-name="Path 9696" d="M723.182,528.6a1.518,1.518,0,1,1,2.975-.608,14.518,14.518,0,0,1-22.376,14.957,1.516,1.516,0,0,1,1.7-2.51,11.384,11.384,0,0,0,6.448,1.969,11.69,11.69,0,0,0,2.346-.231,11.515,11.515,0,0,0,9.144-11.246,11.868,11.868,0,0,0-.24-2.332m-22.74,2.332a1.521,1.521,0,1,1-3.042,0,14.519,14.519,0,0,1,24.15-10.882,1.519,1.519,0,0,1-2.013,2.275,11.49,11.49,0,0,0-19.095,8.607Z" transform="translate(-697.4 -516.4)"/>
    </clipPath>
    <linearGradient id="linear-gradient-2" x1="0.5" y1="1.292" x2="0.5" y2="-0.365" xlink:href="#linear-gradient"/>
    <clipPath id="clip-path-3">
      <path id="Path_9697" data-name="Path 9697" d="M848.891,662.717a1.521,1.521,0,0,1,3.042,0,8.416,8.416,0,1,1-8.417-8.417,1.521,1.521,0,1,1,0,3.042,5.375,5.375,0,1,0,5.375,5.375" transform="translate(-835.1 -654.3)"/>
    </clipPath>
    <linearGradient id="linear-gradient-3" x1="0.5" y1="1.866" x2="0.5" y2="-0.993" xlink:href="#linear-gradient"/>
    <clipPath id="clip-path-4">
      <path id="Path_9698" data-name="Path 9698" d="M1155.421,1209.6a1.521,1.521,0,1,0,1.521,1.521,1.521,1.521,0,0,0-1.521-1.521" transform="translate(-1153.9 -1209.6)"/>
    </clipPath>
    <linearGradient id="linear-gradient-4" x1="0.5" y1="2.229" x2="0.5" y2="-13.567" xlink:href="#linear-gradient"/>
    <clipPath id="clip-path-5">
      <path id="Path_9699" data-name="Path 9699" d="M732.321,945.2a1.521,1.521,0,1,0,1.521,1.521,1.521,1.521,0,0,0-1.521-1.521" transform="translate(-730.8 -945.2)"/>
    </clipPath>
    <linearGradient id="linear-gradient-5" x1="0.5" y1="6.078" x2="0.5" y2="-9.719" xlink:href="#linear-gradient"/>
    <clipPath id="clip-path-6">
      <path id="Path_9700" data-name="Path 9700" d="M1096.621,393.7a1.521,1.521,0,1,0,1.521,1.521,1.521,1.521,0,0,0-1.521-1.521" transform="translate(-1095.1 -393.7)"/>
    </clipPath>
    <linearGradient id="linear-gradient-6" x1="0.499" y1="14.105" x2="0.499" y2="-1.691" xlink:href="#linear-gradient"/>
    <clipPath id="clip-path-7">
      <path id="Path_9701" data-name="Path 9701" d="M979.224,705.439a2.124,2.124,0,1,0,2.124,2.124,1.808,1.808,0,0,0-.018-.271c-.151-1.211,1.57-3.033,2.78-3.051a1.521,1.521,0,1,0-1.539-1.592,3.95,3.95,0,0,1-2.745,2.789,1.261,1.261,0,0,1-.364.013,2.155,2.155,0,0,0-.239-.013" transform="translate(-977.1 -701.2)"/>
    </clipPath>
    <linearGradient id="linear-gradient-7" x1="0.5" y1="3.454" x2="0.5" y2="-2.212" xlink:href="#linear-gradient"/>
    <linearGradient id="linear-gradient-8" x1="2.924" y1="1.852" x2="1.87" y2="0.369" gradientUnits="objectBoundingBox">
      <stop offset="0" stop-color="#24553a"/>
      <stop offset="1" stop-color="#49be55"/>
    </linearGradient>
  </defs>
  <g id="Group_2199" data-name="Group 2199" transform="translate(-214.753 -40)">
    <g id="Group_1587" data-name="Group 1587" transform="translate(214.752 40)">
      <g id="Group_1574" data-name="Group 1574" transform="translate(0 0)">
        <g id="Group_1573" data-name="Group 1573" transform="translate(0)" clip-path="url(#clip-path)">
          <rect id="Rectangle_372" data-name="Rectangle 372" width="41.289" height="41.285" transform="translate(0.004 -0.053)" fill="url(#linear-gradient)"/>
        </g>
      </g>
      <g id="Group_1576" data-name="Group 1576" transform="translate(6.12 6.057)">
        <g id="Group_1575" data-name="Group 1575" transform="translate(0)" clip-path="url(#clip-path-2)">
          <rect id="Rectangle_373" data-name="Rectangle 373" width="29.063" height="29.059" transform="translate(-0.004 0)" fill="url(#linear-gradient-2)"/>
        </g>
      </g>
      <g id="Group_1578" data-name="Group 1578" transform="translate(12.226 12.172)">
        <g id="Group_1577" data-name="Group 1577" transform="translate(0 0)" clip-path="url(#clip-path-3)">
          <rect id="Rectangle_374" data-name="Rectangle 374" width="16.833" height="16.833" transform="translate(0.004 0)" fill="url(#linear-gradient-3)"/>
        </g>
      </g>
      <g id="Group_1580" data-name="Group 1580" transform="translate(26.363 36.797)">
        <g id="Group_1579" data-name="Group 1579" transform="translate(0)" clip-path="url(#clip-path-4)">
          <rect id="Rectangle_375" data-name="Rectangle 375" width="3.046" height="3.046" transform="translate(0)" fill="url(#linear-gradient-4)"/>
        </g>
      </g>
      <g id="Group_1582" data-name="Group 1582" transform="translate(7.601 25.072)">
        <g id="Group_1581" data-name="Group 1581" transform="translate(0)" clip-path="url(#clip-path-5)">
          <rect id="Rectangle_376" data-name="Rectangle 376" width="3.046" height="3.046" fill="url(#linear-gradient-5)"/>
        </g>
      </g>
      <g id="Group_1584" data-name="Group 1584" transform="translate(23.755 0.616)">
        <g id="Group_1583" data-name="Group 1583" transform="translate(0 0)" clip-path="url(#clip-path-6)">
          <rect id="Rectangle_377" data-name="Rectangle 377" width="3.046" height="3.046" fill="url(#linear-gradient-6)"/>
        </g>
      </g>
      <g id="Group_1586" data-name="Group 1586" transform="translate(18.523 14.252)">
        <g id="Group_1585" data-name="Group 1585" transform="translate(0)" clip-path="url(#clip-path-7)">
          <rect id="Rectangle_378" data-name="Rectangle 378" width="8.519" height="8.492" transform="translate(0 0)" fill="url(#linear-gradient-7)"/>
        </g>
      </g>
    </g>
    <path id="Path_9702" data-name="Path 9702" d="M-18.27-11.1a35.08,35.08,0,0,1,.165-3.615,15.091,15.091,0,0,1,.63-3.03,6.987,6.987,0,0,1,1.26-2.4,5.538,5.538,0,0,1,2.07-1.5A7.6,7.6,0,0,1-11.1-22.2a40.8,40.8,0,0,1,4.335.195,31.754,31.754,0,0,1,4.1.765v3.27q-.03,0-.5-.06t-1.23-.135q-.765-.075-1.665-.15t-2-.12q-1.095-.045-2.055-.045a5.66,5.66,0,0,0-1.455.165,2.526,2.526,0,0,0-1.05.555,3.244,3.244,0,0,0-.72.945,5.325,5.325,0,0,0-.45,1.44,15.3,15.3,0,0,0-.225,1.89q-.06,1.005-.06,2.445,0,4.35.72,5.805t3.03,1.455a5.322,5.322,0,0,0,1.17-.135,5.919,5.919,0,0,0,1.05-.33,9.075,9.075,0,0,0,.825-.4,3.844,3.844,0,0,0,.555-.36l.18-.15V-9.09H-9.6v-2.67a14.524,14.524,0,0,1,5.22-.72q.96,0,2.04.06V0h-3L-6.48-1.47a4.524,4.524,0,0,1-.6.51,5.731,5.731,0,0,1-.72.42A5.243,5.243,0,0,1-8.685-.2,8.13,8.13,0,0,1-9.765.03,13.093,13.093,0,0,1-11.13.15a7.211,7.211,0,0,1-3.12-.51,5.274,5.274,0,0,1-2.085-1.53,7.227,7.227,0,0,1-1.215-2.5,16.015,16.015,0,0,1-.585-3.09Q-18.27-9.03-18.27-11.1Zm19.11.27q0-1.53.105-2.82a17.313,17.313,0,0,1,.33-2.31,16.668,16.668,0,0,1,.51-1.845,6.035,6.035,0,0,1,.7-1.44,9.046,9.046,0,0,1,.855-1.08,3.86,3.86,0,0,1,1.035-.78,8.7,8.7,0,0,1,1.155-.51,6.837,6.837,0,0,1,1.275-.3q.72-.105,1.365-.15T9.66-22.11q1.08,0,1.875.06a12.037,12.037,0,0,1,1.68.255,5.378,5.378,0,0,1,1.515.555,8.233,8.233,0,0,1,1.275.915,4.374,4.374,0,0,1,1.065,1.41,12.455,12.455,0,0,1,.75,1.98,15.393,15.393,0,0,1,.495,2.67,32.55,32.55,0,0,1,.165,3.435,26.472,26.472,0,0,1-.225,3.645,17.593,17.593,0,0,1-.585,2.76,6.538,6.538,0,0,1-.975,1.98,6.243,6.243,0,0,1-1.29,1.32,5.283,5.283,0,0,1-1.635.78,10.024,10.024,0,0,1-1.9.375q-.945.09-2.2.09Q8.55.12,7.725.06a13.5,13.5,0,0,1-1.71-.24A5.381,5.381,0,0,1,4.5-.705a7.026,7.026,0,0,1-1.26-.9,4.586,4.586,0,0,1-1.05-1.38,10.855,10.855,0,0,1-.735-1.92A14.8,14.8,0,0,1,.99-7.485Q.84-8.97.84-10.83Zm4.2,0q0,1.86.12,3.045A9.271,9.271,0,0,0,5.565-5.76,2.508,2.508,0,0,0,6.42-4.5a3.443,3.443,0,0,0,1.305.585A9.15,9.15,0,0,0,9.66-3.75a5.688,5.688,0,0,0,2.79-.54,3.334,3.334,0,0,0,1.38-2.055,16.794,16.794,0,0,0,.45-4.485q0-1.71-.1-2.925A9.2,9.2,0,0,0,13.8-15.8a5.576,5.576,0,0,0-.585-1.305,2.01,2.01,0,0,0-.885-.735,4.093,4.093,0,0,0-1.155-.33A12.363,12.363,0,0,0,9.66-18.24q-.78,0-1.275.045a6.183,6.183,0,0,0-1.05.2,1.905,1.905,0,0,0-.87.465,4.212,4.212,0,0,0-.63.855,4.181,4.181,0,0,0-.465,1.335,18.532,18.532,0,0,0-.24,1.9Q5.04-12.33,5.04-10.83Z" transform="translate(279 72.2)" fill="#9d60eb"/>
    <path id="Path_9703" data-name="Path 9703" d="M.6-13.74v-1.68l2.97-.54.54-4.44H5.79v4.44h4.65v2.22H5.79V-5.7a5.373,5.373,0,0,0,.42,2.535A1.965,1.965,0,0,0,7.5-2.25q2.46.63,2.67.63V-.03H7.53Q3.57-.03,3.57-5.7v-8.04Zm12.69,5.7a20.116,20.116,0,0,1,.36-4.245,4.389,4.389,0,0,1,1.305-2.43,4.7,4.7,0,0,1,2.1-1.08,15.58,15.58,0,0,1,3.195-.255,17.131,17.131,0,0,1,2.58.15,5.136,5.136,0,0,1,1.83.69,3.009,3.009,0,0,1,1.29,1.71,10.023,10.023,0,0,1,.39,3.09q0,3.66-4.11,3.66H15.51a7.462,7.462,0,0,0,.63,3.735,2.684,2.684,0,0,0,2.4.945H19.8a47.006,47.006,0,0,0,6.24-.3V-.69a28.106,28.106,0,0,1-7.5.84q-3.03,0-4.14-1.74T13.29-8.04Zm2.22-.9h6.72q1.89,0,1.89-1.47,0-2.31-.675-2.865T20.28-13.83q-1.05,0-1.545.03a8.806,8.806,0,0,0-1.17.165,1.792,1.792,0,0,0-.96.435,4.6,4.6,0,0,0-.6.84,3.46,3.46,0,0,0-.405,1.38A19.573,19.573,0,0,0,15.51-8.94Zm13.98.96a19.5,19.5,0,0,1,.375-4.185,5.449,5.449,0,0,1,1.125-2.49,3.945,3.945,0,0,1,1.62-1.125,6.585,6.585,0,0,1,2.13-.3,39.128,39.128,0,0,1,6.84.78v1.62q-4.17-.18-6.84-.18a4.153,4.153,0,0,0-1.26.15,2.154,2.154,0,0,0-.915.7,3.752,3.752,0,0,0-.66,1.815,22.691,22.691,0,0,0-.195,3.33,10.515,10.515,0,0,0,.675,4.575A2.464,2.464,0,0,0,34.74-2.07q1.23,0,2.985-.075T40.65-2.31l1.14-.09V-.72a27.879,27.879,0,0,1-7.05.87,6.338,6.338,0,0,1-2.085-.3,4.078,4.078,0,0,1-1.62-1.125,5.467,5.467,0,0,1-1.155-2.5A18.978,18.978,0,0,1,29.49-7.98ZM45.24,0V-23.52h2.22v9.45a6.728,6.728,0,0,0,.66-.375q.57-.345.705-.405t.645-.345a4.129,4.129,0,0,1,.72-.345q.21-.06.69-.24a5.071,5.071,0,0,1,.795-.24q.315-.06.765-.12a6.8,6.8,0,0,1,.9-.06,4.549,4.549,0,0,1,3.6,1.5,5.264,5.264,0,0,1,1.32,3.6V0H56.04V-11.1a2.9,2.9,0,0,0-.735-2.16,2.687,2.687,0,0,0-1.965-.72,9.407,9.407,0,0,0-2.16.24,10.956,10.956,0,0,0-1.635.5q-.615.255-2.085.975V0Z" transform="translate(298 72.52)" fill="url(#linear-gradient-8)"/>
  </g>
</svg>
